<svg height="512pt" viewBox="0 0 512 512" width="512pt" xmlns="http://www.w3.org/2000/svg"><path d="m428.460938 83.289062c-32.894532-32.894531-74.679688-56.890624-120.710938-67.394531-108.902344 24.851563-194 125.296875-194 240.105469 0 66.28125 28.359375 127.78125 73.289062 172.710938 32.894532 32.894531 74.679688 56.890624 120.710938 67.394531 108.902344-24.851563 194-125.296875 194-240.105469 0-66.28125-28.359375-127.78125-73.289062-172.710938zm0 0" fill="#f0e6de"/><g fill="#57555c"><path d="m255.75 73v-37.640625c-57.871094 4.242187-111.199219 29.910156-151.804688 68.835937l23.085938 23.085938c33.339844-33.339844 79.097656-54.28125 128.71875-54.28125zm0 0"/><path d="m42.550781 256c1.484375 57.4375 24.195313 110.980469 60.34375 152.855469l24.136719-24.136719c-33.339844-33.339844-54.28125-79.097656-54.28125-128.71875zm0 0"/><path d="m501.75 256h-63c0-49.621094-20.941406-95.378906-54.28125-128.71875l43.992188-43.992188c44.929687 44.929688 73.289062 106.429688 73.289062 172.710938zm0 0"/><path d="m384.46875 384.71875 43.992188 43.992188c-44.929688 44.929687-106.429688 73.289062-172.710938 73.289062v-63c49.621094 0 95.378906-20.941406 128.71875-54.28125zm0 0"/></g><path d="m330.351562 254.910156c0 21.980469-15.230468 40.539063-37.339843 40.539063-7.570313 0-13.773438-2.308594-18.761719-5.71875-1.179688 4.640625-1.808594 9.488281-1.808594 14.488281 0 16.371094 6.730469 31.171875 17.570313 41.78125-7.542969-.03125-60.621094-.019531-68.5625-.019531 10.859375-10.589844 17.582031-25.390625 17.582031-41.761719 0-5.019531-.632812-9.890625-1.820312-14.527344-5.019532 3.417969-11.25 5.757813-18.882813 5.757813-22.097656 0-37.339844-18.558594-37.339844-40.539063 0-17.308594 9.863281-31.289062 26.53125-47.210937 12.601563-12.027344 29.089844-25.179688 48.152344-41.699219 8.089844 7.011719 15.707031 13.410156 22.769531 19.371094 31.609375 26.707031 51.910156 44.6875 51.910156 69.539062zm0 0" fill="#fff"/><path d="m278.441406 185.371094c-1.761718-1.488282-3.558594-3.003906-5.390625-4.546875-11.785156 9.953125-22.183593 18.675781-30.769531 26.875-16.671875 15.921875-26.53125 29.902343-26.53125 47.210937 0 15.410156 7.5 29.132813 19.597656 35.960938.636719-.378906 1.257813-.769532 1.863282-1.179688.203124.804688.390624 1.617188.5625 2.4375 4.574218 2.128906 9.726562 3.320313 15.316406 3.320313 7.628906 0 13.859375-2.339844 18.878906-5.757813.476562 1.84375.855469 3.730469 1.148438 5.644532.289062-1.898438.664062-3.769532 1.132812-5.605469 4.988281 3.410156 11.191406 5.71875 18.761719 5.71875 5.648437 0 10.847656-1.21875 15.460937-3.390625.167969-.78125.339844-1.558594.539063-2.328125.574219.390625 1.167969.765625 1.773437 1.125 12.082032-6.832031 19.566406-20.542969 19.566406-35.945313 0-24.851562-20.300781-42.832031-51.910156-69.539062zm0 0" fill="#57555c"/><path d="m273.113281 313.113281c-1.949219 12.796875-8.050781 24.230469-16.902343 32.863281 2.054687 0 4.105468 0 6.125.003907 6.660156-.003907 17.125-.003907 27.652343-.003907-8.824219-8.644531-14.921875-20.074218-16.875-32.863281zm0 0" fill="#57555c"/><path d="m156 166c5.519531 0 10-4.480469 10-10s-4.480469-10-10-10-10 4.480469-10 10 4.480469 10 10 10zm0 0"/><path d="m256 106c-25.136719 0-50.023438 6.367188-71.972656 18.414062-4.839844 2.65625-6.613282 8.734376-3.953125 13.578126 2.65625 4.84375 8.734375 6.613281 13.578125 3.953124 19.003906-10.429687 40.566406-15.945312 62.347656-15.945312 71.683594 0 130 58.316406 130 130s-58.316406 130-130 130-130-58.316406-130-130c0-21.78125 5.515625-43.34375 15.945312-62.347656 2.660157-4.84375.886719-10.921875-3.953124-13.578125-4.839844-2.65625-10.921876-.886719-13.578126 3.953125-12.046874 21.949218-18.414062 46.835937-18.414062 71.972656 0 82.710938 67.289062 150 150 150s150-67.289062 150-150-67.289062-150-150-150zm0 0"/><path d="m256 0c-137.625 0-256 117.453125-256 256 0 137.988281 117.820312 256 256 256 137.988281 0 256-117.820312 256-256 0-137.992188-117.824219-256-256-256zm192.730469 246c-2.320313-43.761719-19.820313-85.222656-50.042969-118.546875l29.867188-29.863281c38.078124 41.324218 60.699218 94.453125 63.199218 148.410156zm-192.730469 183c-93.65625 0-173-79.195312-173-173 0-93.65625 79.195312-173 173-173 93.65625 0 173 79.195312 173 173 0 93.65625-79.195312 173-173 173zm158.410156-345.554688-29.863281 29.867188c-33.324219-30.222656-74.785156-47.722656-118.546875-50.042969v-43.023437c53.957031 2.5 107.085938 25.125 148.410156 63.199218zm-168.410156-63.199218v43.023437c-43.761719 2.320313-85.222656 19.820313-118.546875 50.042969l-29.863281-29.867188c41.324218-38.074218 94.453125-60.699218 148.410156-63.199218zm-162.554688 77.34375 29.867188 29.863281c-30.222656 33.324219-47.722656 74.785156-50.042969 118.546875h-43.023437c2.5-53.957031 25.125-107.085938 63.199218-148.410156zm-63.199218 168.410156h43.023437c2.320313 43.761719 19.820313 85.222656 50.042969 118.546875l-29.867188 29.863281c-38.074218-41.324218-60.699218-94.453125-63.199218-148.410156zm77.34375 162.554688 29.863281-29.867188c33.324219 30.222656 74.785156 47.722656 118.546875 50.042969v43.023437c-53.957031-2.5-107.085938-25.125-148.410156-63.199218zm168.410156 63.199218v-43.023437c43.761719-2.320313 85.222656-19.820313 118.546875-50.042969l29.863281 29.867188c-41.324218 38.074218-94.453125 60.699218-148.410156 63.199218zm162.554688-77.34375-29.867188-29.863281c30.222656-33.324219 47.722656-74.886719 50.042969-118.648437h43.023437c-2.5 53.957031-25.125 107.1875-63.199218 148.511718zm0 0"/><path d="m293.261719 305.449219c26.542969 0 47.339843-22.199219 47.339843-50.539063 0-36.972656-37.199218-61-78.132812-96.46875-3.757812-3.257812-9.339844-3.257812-13.097656 0-43.539063 37.738282-78.132813 60.359375-78.132813 96.46875 0 28.339844 20.796875 50.539063 47.339844 50.539063 3.695313 0 7.269531-.425781 10.703125-1.277344v.046875c0 13.15625-5.171875 25.445312-14.5625 34.601562-2.910156 2.839844-3.8125 7.160157-2.28125 10.925782 1.535156 3.769531 5.195312 6.234375 9.261719 6.234375h5.480469c15.460937-.003907 56.542968-.007813 63.042968.019531h.039063c4.054687 0 7.710937-2.449219 9.25-6.203125 1.546875-3.769531.652343-8.097656-2.257813-10.945313-9.390625-9.191406-14.5625-21.492187-14.5625-34.632812 0-.003906 0-.011719 0-.019531 3.390625.832031 6.917969 1.25 10.570313 1.25zm-13.121094-23.976563c-2.695313-1.839844-6.121094-2.25-9.171875-1.097656-3.058594 1.152344-5.355469 3.726562-6.160156 6.890625-1.40625 5.527344-2.117188 11.230469-2.117188 16.953125 0 11.265625 2.6875 22.1875 7.765625 31.863281-9.492187-.003906-19.324219-.003906-28.941406-.003906 5.074219-9.664063 7.765625-20.585937 7.765625-31.859375 0-5.769531-.71875-11.492188-2.132812-17.011719-.8125-3.15625-3.109376-5.722656-6.15625-6.871093-3.050782-1.152344-6.46875-.742188-9.164063 1.089843-3.972656 2.707031-8.308594 4.023438-13.25 4.023438-15.585937 0-27.339844-13.128907-27.339844-30.539063 0-24.0625 26.0625-42.703125 64.683594-75.71875 39.277344 33.570313 64.679687 51.828125 64.679687 75.71875 0 17.410156-11.753906 30.539063-27.339843 30.539063-4.914063 0-9.203125-1.300781-13.121094-3.976563zm0 0"/></svg>